# Blender v2.80 (sub 75) OBJ File: 'web3dwalk_001_20200706-003.blend'
# www.blender.org
mtllib art-object.mtl
o art-object
v -1.500000 -0.000000 1.500000
v -1.500000 3.000000 1.500000
v 1.500000 -0.000000 1.500000
v 1.500000 3.000000 1.500000
v 1.500000 0.000000 -1.500000
v 1.500000 3.000000 -1.500000
v -1.500000 0.000000 -1.500000
v -1.500000 3.000000 -1.500000
v -1.500000 2.750000 1.250000
v -1.500000 0.250000 -1.250000
v 1.500000 2.750000 1.250000
v -1.500000 2.750000 -1.250000
v 1.500000 0.250000 -1.250000
v -1.500000 0.250000 1.250000
v 1.500000 2.750000 -1.250000
v 1.500000 0.250000 1.250000
v -1.250000 0.250000 1.250000
v 1.250000 3.000000 -1.250000
v 1.250000 0.250000 1.250000
v 1.250000 -0.000000 1.250000
v -1.250000 0.250000 -1.250000
v -1.250000 2.750000 -1.250000
v 1.250000 0.000000 -1.250000
v 1.250000 3.000000 1.250000
v -1.250000 3.000000 -1.250000
v -1.250000 3.000000 1.250000
v -1.250000 -0.000000 1.250000
v -1.250000 0.000000 -1.250000
v -1.250000 2.750000 1.250000
v 1.250000 0.250000 -1.250000
v 1.250000 2.750000 -1.250000
v 1.250000 2.750000 1.250000
v 1.250000 2.750000 1.500000
v 1.250000 0.250000 -1.500000
v -1.250000 0.250000 1.500000
v -1.250000 2.750000 -1.500000
v 1.250000 2.750000 -1.500000
v -1.250000 2.750000 1.500000
v 1.250000 0.250000 1.500000
v -1.250000 0.250000 -1.500000
v 1.250000 2.750000 1.500000
v 1.250000 0.250000 1.500000
v -1.250000 2.750000 1.500000
v -1.250000 0.250000 1.500000
v 1.250000 2.750000 -1.500000
v 1.250000 0.250000 -1.500000
v -1.250000 2.750000 -1.500000
v -1.250000 0.250000 -1.500000
v 1.250000 0.250000 1.250000
v -1.250000 2.750000 1.250000
v -1.250000 0.250000 1.250000
v -1.250000 2.750000 -1.250000
v 1.250000 2.750000 1.250000
v -1.250000 0.250000 -1.250000
v 1.250000 2.750000 -1.250000
v 1.250000 0.250000 -1.250000
vt 0.972222 0.027778
vt 0.694445 0.027778
vt 0.666667 0.000000
vt 1.000000 0.000000
vt 0.666667 0.333333
vt 0.694445 0.305556
vt 0.972222 0.305555
vt 1.000000 0.333333
vt 0.305556 0.027778
vt 0.333333 0.000000
vt 0.333333 0.333333
vt 0.305556 0.305556
vt 0.000000 0.333333
vt 0.027778 0.305556
vt 0.027778 0.027778
vt 0.000000 0.000000
vt 0.000000 1.000000
vt 0.027778 0.694445
vt 0.027778 0.972222
vt 0.000000 0.666667
vt 0.305556 0.972222
vt 0.333333 1.000000
vt 0.333333 0.666667
vt 0.305555 0.694444
vt 0.333333 0.000000
vt 0.361111 0.027778
vt 0.361111 0.305556
vt 0.333333 0.333333
vt 0.666667 0.333333
vt 0.638889 0.305556
vt 0.638889 0.027778
vt 0.666667 0.000000
vt 0.333333 0.333333
vt 0.305555 0.361111
vt 0.027778 0.361111
vt 0.000000 0.333334
vt 0.000000 0.666667
vt 0.027778 0.638889
vt 0.305556 0.638889
vt 0.333333 0.666667
vt 0.666667 0.666667
vt 0.638889 0.638889
vt 0.638889 0.361111
vt 0.666667 0.333333
vt 0.333333 0.333333
vt 0.361111 0.361111
vt 0.361111 0.638889
vt 0.333333 0.666667
vt 0.388889 0.944444
vt 0.361111 0.944444
vt 0.361111 0.666667
vt 0.388889 0.666667
vt 0.750000 0.611111
vt 0.777778 0.611111
vt 0.777778 0.888889
vt 0.750000 0.888889
vt 0.361111 0.944444
vt 0.333333 0.944444
vt 0.333333 0.666667
vt 0.361111 0.666667
vt 0.694445 0.611111
vt 0.722222 0.611111
vt 0.722222 0.888889
vt 0.694445 0.888889
vt 0.861112 0.611111
vt 0.888889 0.611111
vt 0.888889 0.888889
vt 0.861112 0.888889
vt 0.833334 0.888889
vt 0.805556 0.888889
vt 0.805556 0.611111
vt 0.833334 0.611111
vt 0.805556 0.888889
vt 0.777778 0.611111
vt 0.805556 0.611111
vt 0.944445 0.611111
vt 0.916667 0.611111
vt 0.916667 0.333333
vt 0.944445 0.333333
vt 0.777778 0.611111
vt 0.750000 0.611111
vt 0.750000 0.333333
vt 0.777778 0.333333
vt 0.916667 0.888889
vt 0.888889 0.888889
vt 0.888889 0.611111
vt 0.916667 0.611111
vt 0.833334 0.611111
vt 0.805556 0.611111
vt 0.805556 0.333333
vt 0.833334 0.333333
vt 0.694445 0.888889
vt 0.666667 0.888889
vt 0.666667 0.611111
vt 0.694445 0.611111
vt 0.722222 0.333333
vt 0.750000 0.333333
vt 0.750000 0.611111
vt 0.722223 0.611111
vt 0.750000 0.888889
vt 0.722222 0.888889
vt 0.722222 0.611111
vt 0.750000 0.611111
vt 0.444444 0.944444
vt 0.416667 0.944444
vt 0.416667 0.666667
vt 0.444444 0.666667
vt 0.416667 0.944444
vt 0.388889 0.944444
vt 0.388889 0.666667
vt 0.416667 0.666667
vt 0.861112 0.888889
vt 0.833334 0.888889
vt 0.833334 0.611111
vt 0.861112 0.611111
vt 0.916667 0.611111
vt 0.888889 0.611111
vt 0.888889 0.333333
vt 0.916667 0.333333
vt 0.694445 0.333333
vt 0.722222 0.333333
vt 0.722222 0.611111
vt 0.694445 0.611111
vt 0.666667 0.333333
vt 0.694445 0.333333
vt 0.694445 0.611111
vt 0.666667 0.611111
vt 0.777778 0.333333
vt 0.805556 0.333333
vt 0.805556 0.611111
vt 0.777778 0.611111
vt 0.861112 0.333333
vt 0.888889 0.333333
vt 0.888889 0.611111
vt 0.861112 0.611111
vt 0.444444 0.666667
vt 0.472222 0.666667
vt 0.472222 0.944444
vt 0.444444 0.944444
vt 0.861112 0.611111
vt 0.833334 0.611111
vt 0.833334 0.333333
vt 0.861112 0.333333
vn 0.0000 -0.0000 1.0000
vn 1.0000 0.0000 0.0000
vn 0.0000 0.0000 -1.0000
vn -1.0000 0.0000 0.0000
vn 0.0000 1.0000 0.0000
vn 0.0000 -1.0000 -0.0000
usemtl art-object
s 1
f 39/1/1 35/2/1 1/3/1 3/4/1
f 2/5/1 1/3/1 35/2/1 38/6/1
f 33/7/1 4/8/1 2/5/1 38/6/1
f 33/7/1 39/1/1 3/4/1 4/8/1
f 16/9/2 3/10/2 5/11/2 13/12/2
f 6/13/2 15/14/2 13/12/2 5/11/2
f 11/15/2 4/16/2 3/10/2 16/9/2
f 11/15/2 15/14/2 6/13/2 4/16/2
f 7/17/3 36/18/3 40/19/3
f 36/18/3 7/17/3 8/20/3
f 34/21/3 5/22/3 7/17/3 40/19/3
f 6/23/3 37/24/3 36/18/3 8/20/3
f 34/21/3 37/24/3 6/23/3 5/22/3
f 2/25/4 9/26/4 14/27/4 1/28/4
f 7/29/4 1/28/4 14/27/4 10/30/4
f 12/31/4 8/32/4 7/29/4 10/30/4
f 12/31/4 9/26/4 2/25/4 8/32/4
f 6/33/5 18/34/5 24/35/5 4/36/5
f 2/37/5 4/36/5 24/35/5 26/38/5
f 25/39/5 8/40/5 2/37/5 26/38/5
f 25/39/5 18/34/5 6/33/5 8/40/5
f 7/41/6 28/42/6 27/43/6 1/44/6
f 3/45/6 1/44/6 27/43/6 20/46/6
f 23/47/6 5/48/6 3/45/6 20/46/6
f 23/47/6 28/42/6 7/41/6 5/48/6
f 17/49/3 14/50/3 9/51/3 29/52/3
f 32/53/3 11/54/3 16/55/3 19/56/3
f 22/57/1 12/58/1 10/59/1 21/60/1
f 30/61/1 13/62/1 15/63/1 31/64/1
f 29/65/6 9/66/6 12/67/6 22/68/6
f 31/69/6 15/70/6 11/71/6 32/72/6
f 19/73/5 16/55/5 13/74/5 30/75/5
f 21/76/5 10/77/5 14/78/5 17/79/5
f 29/80/3 26/81/3 24/82/3 32/83/3
f 27/84/3 17/85/3 19/86/3 20/87/3
f 30/88/4 23/89/4 20/90/4 19/91/4
f 18/92/4 31/93/4 32/94/4 24/95/4
f 25/96/1 22/97/1 31/98/1 18/99/1
f 21/100/1 28/101/1 23/102/1 30/103/1
f 17/104/2 27/105/2 28/106/2 21/107/2
f 26/108/2 29/109/2 22/110/2 25/111/2
f 46/112/4 56/113/4 55/114/4 45/115/4
f 49/116/4 42/117/4 41/118/4 53/119/4
f 54/120/2 48/121/2 47/122/2 52/123/2
f 44/124/2 51/125/2 50/126/2 43/127/2
f 53/128/6 41/129/6 43/130/6 50/131/6
f 45/132/6 55/133/6 52/134/6 47/135/6
f 51/136/5 44/137/5 42/138/5 49/139/5
f 48/140/5 54/141/5 56/142/5 46/143/5
