# Blender v2.80 (sub 75) OBJ File: 'web3dwalk_200714.blend'
# www.blender.org
mtllib looftop.mtl
o looftop
v -10.000000 4.000000 10.000000
v -10.000000 4.500000 10.000000
v -10.000000 4.000000 -10.000000
v -10.000000 4.500000 -10.000000
v 10.000000 4.000000 10.000000
v 10.000000 4.500000 10.000000
v 10.000000 4.000000 -10.000000
v 10.000000 4.500000 -10.000000
v -4.000000 4.500000 -4.000000
v -4.000000 4.000000 -4.000000
v 4.000000 4.500000 -4.000000
v 4.000000 4.000000 -4.000000
v 4.000000 4.500000 4.000000
v 4.000000 4.000000 4.000000
v -4.000000 4.500000 4.000000
v -4.000000 4.000000 4.000000
vt 0.333333 0.333333
vt 0.666667 0.000000
vt 0.666667 0.333333
vt 0.000000 0.666667
vt 0.333333 0.333333
vt 0.333333 0.666667
vt 0.000000 0.333333
vt 0.333333 0.000000
vt 0.333333 0.333333
vt 0.666667 0.666667
vt 0.333333 0.666667
vt 0.000000 0.500000
vt 0.166667 0.150000
vt 0.166667 0.350000
vt 0.100000 0.766667
vt 0.000000 1.000000
vt 0.000000 0.666667
vt 0.555555 0.000000
vt 0.777778 0.500000
vt 0.555556 0.500000
vt 0.000000 0.500000
vt 0.222222 1.000000
vt 0.000000 1.000000
vt 0.233333 0.900000
vt 0.333333 0.666667
vt 0.333333 1.000000
vt 0.444444 1.000000
vt 0.222222 0.500000
vt 0.444444 0.500000
vt 0.777778 0.000000
vt 1.000000 0.500000
vt 0.777778 0.500000
vt 0.388889 0.150000
vt 0.000000 0.000000
vt 0.555555 0.000000
vt 0.333333 0.000000
vt 0.000000 0.000000
vt 0.666667 0.333333
vt 0.388889 0.350000
vt 0.555555 0.500000
vt 0.233333 0.766667
vt 0.100000 0.900000
vt 0.777778 0.000000
vt 0.222222 0.500000
vt 0.222222 1.000000
vt 1.000000 0.000000
vn -1.0000 0.0000 0.0000
vn 0.0000 0.0000 -1.0000
vn 1.0000 0.0000 0.0000
vn 0.0000 0.0000 1.0000
vn 0.0000 -1.0000 0.0000
vn 0.0000 1.0000 0.0000
g looftop_looftop_looftop
usemtl looftop
s off
f 2/1/1 3/2/1 1/3/1
f 4/4/2 7/5/2 3/6/2
f 8/7/3 5/8/3 7/5/3
f 6/9/4 1/10/4 5/11/4
f 7/12/5 14/13/5 12/14/5
f 13/15/6 2/16/6 6/17/6
f 13/18/1 12/19/1 14/20/1
f 11/21/4 10/22/4 12/23/4
f 9/24/6 8/25/6 4/26/6
f 9/27/3 16/28/3 10/29/3
f 15/30/2 14/31/2 16/32/2
f 16/33/5 5/34/5 1/35/5
f 2/1/1 4/36/1 3/2/1
f 4/4/2 8/7/2 7/5/2
f 8/7/3 6/37/3 5/8/3
f 6/9/4 2/38/4 1/10/4
f 10/39/5 3/40/5 7/12/5
f 7/12/5 5/34/5 14/13/5
f 12/14/5 10/39/5 7/12/5
f 6/17/6 8/25/6 11/41/6
f 13/15/6 15/42/6 2/16/6
f 6/17/6 11/41/6 13/15/6
f 13/18/1 11/43/1 12/19/1
f 11/21/4 9/44/4 10/22/4
f 4/26/6 2/16/6 15/42/6
f 9/24/6 11/41/6 8/25/6
f 4/26/6 15/42/6 9/24/6
f 9/27/3 15/45/3 16/28/3
f 15/30/2 13/46/2 14/31/2
f 3/40/5 10/39/5 16/33/5
f 16/33/5 14/13/5 5/34/5
f 1/35/5 3/40/5 16/33/5
