# Blender v2.80 (sub 75) OBJ File: 'web3dwalk_200714.blend'
# www.blender.org
mtllib wall_3.mtl
o wall_3
v 3.600001 5.099999 -12.400001
v 3.600002 12.299999 -12.400001
v -3.599999 5.100000 -12.400001
v -3.599998 12.300001 -12.400001
v -10.000000 0.000002 -10.000000
v -9.999999 4.000001 -10.000000
v 10.000000 -0.000002 -10.000000
v 10.000001 3.999999 -10.000000
vt 1.000000 1.000000
vt 0.000001 1.000000
vt 0.000000 0.000000
vt 0.999999 0.000000
vn 0.0000 0.0000 1.0000
g wall_3_wall_3_wall_3
usemtl wall_3
s 1
f 7/1/1 8/2/1 6/3/1 5/4/1
