# Blender v2.80 (sub 75) OBJ File: 'web3dwalk_001_20200706-003.blend'
# www.blender.org
mtllib wall_2.mtl
o wall_2
v -12.400000 5.099999 -3.600001
v -12.400001 12.300000 -3.600001
v -12.400002 5.099999 3.599999
v -12.400003 12.300000 3.599999
v -10.000003 0.000000 10.000000
v -10.000004 4.000000 10.000000
v -9.999997 0.000000 -10.000000
v -9.999998 4.000000 -10.000000
vt 0.000000 0.000000
vt 1.000000 0.000000
vt 1.000000 1.000000
vt 0.000000 1.000000
vn 1.0000 0.0000 0.0000
usemtl wall_2
s 1
f 7/1/1 8/2/1 6/3/1 5/4/1
